<svg xmlns="http://www.w3.org/2000/svg" width="251.436" height="78.312" viewBox="0 0 251.436 78.312"><defs><style>.a{fill:#0e2e41;}.b{fill:#fafafa;}.c{fill:#359d9e;}.d{fill:#ff7d71;}.e{fill:#f75c4c;}.f{fill:#ff9a90;}.g{fill:#fff;}</style></defs><g transform="translate(-561.664 -122.269)"><g transform="translate(561.664 122.269)"><g transform="translate(0 0)"><g transform="translate(0)"><circle class="a" cx="29.461" cy="29.461" r="29.461" transform="translate(8.24 70.071) rotate(-90)"/><circle class="b" cx="26.659" cy="26.659" r="26.659" transform="translate(0 40.61) rotate(-45)"/><path class="a" d="M738.639,639.7a3.381,3.381,0,0,0-1.716-3.322c-1.392-.74-4.392-.362-6.709.67-.229.107-1.53.595-1.188-.1,2.238-4.538,1.132-9.738,1.538-14.3a.389.389,0,0,1,.58-.354,2.63,2.63,0,0,1,.443.66c1.026,1.611,5.015-.61,4.125-2.221-.2-.375-1.572-2.191-1.577-2.4-.145-5.652-3.642-5.415-3.946-5.878l-5.2-7.907c-1.052-1.667-5.025.6-4.141,2.2l2.289,3.442a.233.233,0,0,1,.036.177c-.8,4.444.945,5.692,3.329,6.3a.242.242,0,0,1,.118.4c-2.61,2.832-2.344,6.576-2.843,10.353-.37,2.8-2.215,5.76-5.357,5.345-6.435-.85-3.118-9.662-3.118-13.855a12.228,12.228,0,0,0-4.463-9.458.236.236,0,0,1-.087-.206l.265-3.3a.236.236,0,0,1,.13-.2l6.619-3.42a.24.24,0,0,0-.005-.433l-19.9-7.568a.257.257,0,0,0-.268.037l-16.559,14.153a.242.242,0,0,0,.147.422l5.3.331a.242.242,0,0,1,.227.242v6.456a.238.238,0,0,1-.157.227,2.2,2.2,0,0,0-.438,3.8.238.238,0,0,1,.1.249l-.342,1.7a.241.241,0,0,0,.238.29H688.5a.235.235,0,0,0,.186-.087,6.454,6.454,0,0,0-.243-1.872.238.238,0,0,1,.109-.246,2.191,2.191,0,0,0-.391-3.828.239.239,0,0,1-.157-.227v-6.352a.242.242,0,0,1,.257-.242c.435.027,1.037-.014,1.148.183l2.388,4.26a.235.235,0,0,1,.011.215c-1.242,2.858-1.025,5.2-.952,8.267.163,6.92.287,12.181-7.1,15.162-8.951,3.613-10.263-2.316-7.591-4.935.087-.085.412-.178.412.277,0,.362-1.638,1.537.053,4.186.063.1.009.375.28.375H680.1a.243.243,0,0,0,.242-.242V634.1a.234.234,0,0,1,.091-.189c2.533-2.017,3.62-4.976.05-6.617a.238.238,0,0,1-.141-.22V623.6l-1.641-3.841a.242.242,0,0,0-.443,0L676.6,623.5l-.021,3.788a.24.24,0,0,1-.191.237c-6.677,1.44-9.752,10.166-6.1,15.107a.242.242,0,0,1-.207.386l-1.6-.086a.243.243,0,0,0-.255.229l-.225,4.148a.242.242,0,0,0,.229.255l4.723.256a.236.236,0,0,1,.2.131,3.778,3.778,0,0,0,2.268,1.936c.419.122.217,1.739,2.25,3.717,5.048,4.913,14.8,2.323,19.085-2.969a.238.238,0,0,1,.249-.082l1.31.34a.241.241,0,0,1,.181.25c-.418,6.67,6.043,11.2,11.988,10.308a8.46,8.46,0,0,0,6.365-4.927.241.241,0,0,1,.353-.108c11.129,7.122,23.9-7.494,22.5-14.936C739.442,640.057,738.593,640.08,738.639,639.7Z" transform="translate(-662.964 -594.316)"/><path class="c" d="M760.442,963.687a.238.238,0,0,0-.257.032,2.782,2.782,0,0,0-.466.483.242.242,0,0,0,.195.386h.425a.243.243,0,0,0,.242-.242v-.44A.238.238,0,0,0,760.442,963.687Z" transform="translate(-744.491 -922.816)"/><path class="d" d="M755.418,906.955a.242.242,0,0,0-.4.185c-.019,1.552-.176,1.936-1.712,3.446a4.363,4.363,0,0,0-1.33,1.837.242.242,0,0,0,.4.234c1.529-1.5,4.837-3.412,3.421-5.3A2.288,2.288,0,0,0,755.418,906.955Z" transform="translate(-737.644 -872.33)"/><path class="c" d="M758.126,871.085h-.7a.243.243,0,0,0-.242.242v5.756a.242.242,0,0,0,.42.165,2.351,2.351,0,0,0,.766-1.461v-4.459A.243.243,0,0,0,758.126,871.085Z" transform="translate(-742.279 -840.476)"/><path class="c" d="M758.719,847.172a.294.294,0,0,0-.585,0l-.2.622a.586.586,0,0,0,.024.424.3.3,0,0,0,.268.2h.391a.3.3,0,0,0,.267-.2.582.582,0,0,0,.026-.422Z" transform="translate(-742.923 -818.969)"/><path class="c" d="M784.8,1051.742l-10.967-.594a.242.242,0,0,0-.252.28,5.241,5.241,0,0,0,.536,1.685.236.236,0,0,0,.2.126l10.373.562a.243.243,0,0,0,.255-.228l.085-1.575A.243.243,0,0,0,784.8,1051.742Z" transform="translate(-756.861 -1000.625)"/><path class="d" d="M723.492,1041.085c-1.731.24-2,3.188-.6,4.362a.242.242,0,0,0,.4-.193,13.057,13.057,0,0,1,.466-3.858.242.242,0,0,0-.265-.311Z" transform="translate(-710.983 -991.674)"/><path class="c" d="M683.54,1046.295l-2.93-.159a.242.242,0,0,0-.255.229l-.085,1.575a.242.242,0,0,0,.229.255l2.851.154a.241.241,0,0,0,.255-.256,4.487,4.487,0,0,1,.156-1.49.242.242,0,0,0-.22-.308Z" transform="translate(-673.872 -996.168)"/><path class="c" d="M975.508,1014.139l-5.756-1.364a.241.241,0,0,0-.278.139l-.574,1.327a.242.242,0,0,0,.273.333,13.394,13.394,0,0,1,6.11.3.241.241,0,0,0,.289-.143l.105-.262a.242.242,0,0,0-.169-.326Z" transform="translate(-930.563 -966.491)"/><path class="c" d="M948.44,1071.98a9.817,9.817,0,0,0-6.575-.168.237.237,0,0,0-.145.131l-.7,1.549a.242.242,0,0,0,.16.334l5.933,1.539a.242.242,0,0,0,.286-.144l1.173-2.926A.243.243,0,0,0,948.44,1071.98Z" transform="translate(-905.766 -1018.57)"/><path class="d" d="M955.769,1039.857c-2.841-1.308-6.538-1.684-8.956-.54-.748.354-1.706,1.1-1.757,1.861a.242.242,0,0,0,.309.249,10.72,10.72,0,0,1,9.029,1.273c4.8,3.28,3.02,6.6,2.954,6.719l0,0c-.862,1.479-2.741,1.085-3.488-.775a4.589,4.589,0,0,1,.479-4.116.241.241,0,0,0-.056-.317q-.306-.241-.614-.446a.242.242,0,0,0-.359.111l-1.525,3.8a.241.241,0,0,1-.286.145l-4.362-1.132a.242.242,0,0,0-.3.226c-.193,5.3,4.758,8.985,9.882,8.221a6.706,6.706,0,0,0,5.78-5.359C963.139,1045.685,959.608,1041.625,955.769,1039.857Z" transform="translate(-909.374 -989.497)"/><path class="c" d="M1166.047,703.409a.242.242,0,0,0-.355-.055,3.746,3.746,0,0,1-1.312.763.242.242,0,0,0-.121.363l2.171,3.257a.22.22,0,0,0,.046.051,6.182,6.182,0,0,0,2.7,1.144.242.242,0,0,0,.255-.369Z" transform="translate(-1104.298 -691.247)"/><path class="c" d="M1254.285,840.129a2.63,2.63,0,0,0,1.575-.816A2.63,2.63,0,0,0,1254.285,840.129Z" transform="translate(-1184.405 -812.218)"/><path class="c" d="M1225.568,802.625a.242.242,0,0,0-.255.369l2.179,3.3a.242.242,0,0,0,.349.059,4.167,4.167,0,0,1,1.29-.782.242.242,0,0,0,.122-.365A4.7,4.7,0,0,0,1225.568,802.625Z" transform="translate(-1158.601 -779.582)"/><path class="d" d="M754.264,760.769c-2.055-.738-5.144.275-8.875.139a.241.241,0,0,0-.24.312c1.306,4.343,7.91-.91,8.737,2.975a.236.236,0,0,1-.069.225c-.485.469-.4-.574-1.058-.821a.238.238,0,0,0-.258.056c-.833.844-6.356,6.232-11.078,5.685-2.893-.335-4.856-1.642-5.664-4.554a.242.242,0,0,0-.462-.015,8.262,8.262,0,0,0-.393,1.727c-.069.56-.649.363-.661-.168a5.112,5.112,0,0,1,.184-1.434c1.1-4.094,5.635-4.578,8.9-7.48,4.15-3.689,1.661-12.382,3.258-16.944a.235.235,0,0,0-.027-.214l-1.717-2.6a.242.242,0,0,0-.374-.037c-3.192,3.214-1.9,8.295-3.231,11.927-1.234,3.373-4.154,5.341-7.731,4.032-6.076-2.223-2.809-10.552-2.809-14.773a10.957,10.957,0,0,0-5.768-9.655.233.233,0,0,0-.109-.029,25.45,25.45,0,0,0-13.969,3.3.236.236,0,0,0-.08.072,10.912,10.912,0,0,0-2,6.309c0,8.663,1.684,15.9-7.856,19.752-11.411,4.607-12.9-5.154-7.786-7.927.222-.12.127-.859.127-1.378a.241.241,0,0,0-.3-.235,7.942,7.942,0,0,0-3.111,14.006.788.788,0,0,0,.634,0c1.31-1.227,2.533-.451,2.815-.7a1.691,1.691,0,0,1,2.845.916.239.239,0,0,0,.219.175l6.841.371h.016c3.441-.04,5.83-4.514,6.539-7.457.069-.287.7-.284.611.093a21.475,21.475,0,0,1-3.021,7.226.242.242,0,0,0,.191.372l1.406.076a.243.243,0,0,1,.228.255l-.225,4.148a.243.243,0,0,1-.255.229c-.612-.033-5.628-.366-5.784-.271-4.267,2.592-7.429.974-7.93-4.379-.034-.367-.112-1.151-.661-.889-1,.476-1.123,3.968-1.047,4.9.391,4.8,4.528,7.047,9.118,6.593,5.725-.566,9.775-4.475,11.845-9.644.548-1.366,1.788-1.79,1.887-2.018l1.687-3.9a.24.24,0,0,1,.278-.14l8.261,1.957a.241.241,0,0,1,.169.326l-.629,1.568a.243.243,0,0,0,.133.314c4.266,1.755,8.089,5.848,8.107,10.359a.233.233,0,0,0,.085.183,10.2,10.2,0,0,0,7.3,2.189C751.293,775.344,757.943,762.091,754.264,760.769Z" transform="translate(-679.646 -714.203)"/><path class="e" d="M1092.025,1073.473l0,0,0,0Z" transform="translate(-1040.089 -1020.482)"/><path class="d" d="M1233.232,983.253a11.12,11.12,0,0,0-3.385.691c-3.191,1.255.15,1.53,1.552,1.643h.027a20.565,20.565,0,0,1,3.945-.318.243.243,0,0,0,.262-.217C1235.746,983.918,1234.564,983.186,1233.232,983.253Z" transform="translate(-1161.48 -940.236)"/><path class="d" d="M1177.469,755.191a.242.242,0,0,0-.38.21c.189,4.068,4.76,2.824,7.946,4.436a.243.243,0,0,0,.343-.281C1184.319,755.746,1180.259,757.134,1177.469,755.191Z" transform="translate(-1115.746 -737.36)"/><path class="a" d="M933.795,797.309a3.259,3.259,0,0,0-3.094,3.4c0,3.035,3.373,4.547,5.307,2.374C937.915,800.935,936.526,797.309,933.795,797.309Z" transform="translate(-896.607 -774.859)"/><path class="a" d="M1007.011,797.309a3.258,3.258,0,0,0-3.094,3.4c0,3.035,3.373,4.547,5.306,2.374C1011.132,800.935,1009.743,797.309,1007.011,797.309Z" transform="translate(-961.727 -774.859)"/><path class="a" d="M945.573,864.98c.153,9.893,10.843,9.893,11,0C953.261,867.6,949.322,867.564,945.573,864.98Z" transform="translate(-909.834 -835.046)"/><path class="f" d="M967.219,896.166a3.291,3.291,0,0,0-1.7.461,4.393,4.393,0,0,0,4.722,2.057A2.9,2.9,0,0,0,967.219,896.166Z" transform="translate(-927.576 -862.784)"/><path class="f" d="M984.974,896.5a1.519,1.519,0,0,0-.053.4,1.424,1.424,0,0,0,1.391,1.455,1.349,1.349,0,0,0,.9-.349A3.011,3.011,0,0,0,984.974,896.5Z" transform="translate(-944.831 -863.079)"/><path class="g" d="M1015.6,811.086c0,1.848,1.908,2.8,3.051,1.516a2.354,2.354,0,0,0,0-3.032C1017.508,808.287,1015.6,809.238,1015.6,811.086Z" transform="translate(-972.117 -785.241)"/><path class="g" d="M942.384,811.086c0,1.848,1.908,2.8,3.05,1.516a2.353,2.353,0,0,0,0-3.032C944.292,808.287,942.384,809.238,942.384,811.086Z" transform="translate(-906.998 -785.241)"/><path class="a" d="M790.053,1066.287l.19.008.026-.566-.19-.008Z" transform="translate(-771.514 -1013.587)"/><path class="a" d="M785.653,1062.83l.19.006.037-1.067-.19-.006Z" transform="translate(-767.601 -1010.067)"/><path class="a" d="M802.291,1063.8l.19.006.037-1.066-.19-.006Z" transform="translate(-782.399 -1010.928)"/><path class="a" d="M781.639,1065.9l.19.008.026-.566-.19-.008Z" transform="translate(-764.03 -1013.244)"/><path class="a" d="M793.663,1066.481l.19.008.025-.566-.19-.008Z" transform="translate(-774.724 -1013.76)"/><path class="a" d="M797.273,1066.676l.19.008.025-.566-.19-.008Z" transform="translate(-777.935 -1013.933)"/><path class="a" d="M693.875,1061.088l.19.008.025-.565-.19-.008Z" transform="translate(-685.973 -1008.963)"/><path class="a" d="M778.046,1065.706l.19.008.026-.566-.19-.008Z" transform="translate(-760.835 -1013.07)"/><rect class="a" width="1.026" height="0.19" transform="matrix(0.028, -1, 1, 0.028, 7.02, 52.081)"/><path class="a" d="M806.356,1067.27l.19.008.026-.566-.19-.008Z" transform="translate(-786.013 -1014.461)"/><path class="a" d="M689.958,1060.82l.19.008.025-.566-.19-.008Z" transform="translate(-682.489 -1008.725)"/><path class="a" d="M707.024,1061.8l.19.008.025-.566-.19-.008Z" transform="translate(-697.667 -1009.593)"/><path class="a" d="M702.7,1057.958h.19l.011-1.01h-.19Z" transform="translate(-693.822 -1005.785)"/><path class="a" d="M697.944,1061.323l.19.008.026-.566-.19-.008Z" transform="translate(-689.591 -1009.172)"/><path class="a" d="M827.608,1068.4l.19.008.025-.566-.19-.008Z" transform="translate(-804.915 -1015.465)"/><path class="a" d="M844.2,1069.214l.19.008.026-.566-.19-.008Z" transform="translate(-819.675 -1016.19)"/><path class="a" d="M847.812,1069.41l.19.008.025-.566-.19-.008Z" transform="translate(-822.885 -1016.364)"/><path class="a" d="M856.5,1070l.19.008.025-.566-.19-.008Z" transform="translate(-830.615 -1016.892)"/><path class="a" d="M852.206,1066.7l.19.006.037-1.066-.19-.006Z" transform="translate(-826.794 -1013.508)"/><path class="a" d="M868.846,1067.667l.19.006.037-1.067-.19-.005Z" transform="translate(-841.593 -1014.369)"/><path class="a" d="M811.342,1067.458l.19.008.025-.566-.19-.008Z" transform="translate(-790.449 -1014.629)"/><path class="a" d="M861.086,1070.273l.19.009.025-.566-.19-.009Z" transform="translate(-834.691 -1017.132)"/><path class="a" d="M865.452,1070.509l.19.008.025-.566-.19-.008Z" transform="translate(-838.575 -1017.342)"/><path class="a" d="M823.2,1068.1l.19.008.026-.566-.19-.008Z" transform="translate(-800.997 -1015.202)"/><path class="a" d="M818.967,1063.7l-.022.635-.015.328h0l0,.1.19.006.015-.422.011-.246h0l.014-.4Z" transform="translate(-797.198 -1011.789)"/><path class="a" d="M840.592,1069.019l.19.008.025-.566-.19-.008Z" transform="translate(-816.463 -1016.017)"/><path class="a" d="M815.323,1067.652l.19.008.026-.566-.19-.008Z" transform="translate(-793.989 -1014.801)"/><path class="a" d="M835.568,1065.732l.19.006.037-1.067-.19-.006Z" transform="translate(-811.996 -1012.648)"/><path class="a" d="M831.742,1068.692l.19.008.025-.566-.19-.008Z" transform="translate(-808.592 -1015.726)"/><path class="a" d="M944.133,816.9c-.649,0-1.175.724-1.175,1.619s.526,1.619,1.175,1.619,1.175-.725,1.175-1.619S944.782,816.9,944.133,816.9Z" transform="translate(-907.509 -792.284)"/><path class="g" d="M955.908,821.39a.759.759,0,1,0,.58.738A.673.673,0,0,0,955.908,821.39Z" transform="translate(-918.511 -796.277)"/><path class="a" d="M1017.19,816.9c-.649,0-1.175.724-1.175,1.619s.526,1.619,1.175,1.619,1.175-.725,1.175-1.619S1017.839,816.9,1017.19,816.9Z" transform="translate(-972.486 -792.284)"/><path class="g" d="M1028.964,821.39a.759.759,0,1,0,.58.738A.673.673,0,0,0,1028.964,821.39Z" transform="translate(-983.487 -796.277)"/></g></g><g transform="translate(93.461 24.574)"><path class="a" d="M785.748,1464.522h6.667v28.852h-6.667Z" transform="translate(-785.748 -1464.522)"/><path class="a" d="M836.425,1504.481h-6.667v-2.964a7.925,7.925,0,0,1-6.589,3.2c-5.029,0-8.421-3.47-8.421-9.279v-12.711h6.628v11.814c0,2.964,1.676,4.6,4.171,4.6,2.574,0,4.211-1.637,4.211-4.6v-11.814h6.667Z" transform="translate(-803.442 -1475.627)"/><path class="a" d="M888.838,1471.306a7.985,7.985,0,0,1,6.706,3.314v-10.1h6.668v28.852h-6.668v-3.119a7.524,7.524,0,0,1-6.706,3.431c-5.342,0-9.592-4.366-9.592-11.229S883.5,1471.306,888.838,1471.306Zm1.949,5.81c-2.5,0-4.757,1.871-4.757,5.34s2.261,5.42,4.757,5.42c2.534,0,4.756-1.911,4.756-5.38S893.322,1477.116,890.788,1477.116Z" transform="translate(-842.795 -1464.522)"/><path class="a" d="M958.375,1504.3c-6.394,0-11.229-4.288-11.229-11.189s4.951-11.191,11.306-11.191c6.395,0,11.307,4.289,11.307,11.191S964.769,1504.3,958.375,1504.3Zm0-5.771c2.378,0,4.6-1.754,4.6-5.418,0-3.7-2.183-5.42-4.523-5.42-2.417,0-4.523,1.715-4.523,5.42C953.93,1496.779,955.957,1498.532,958.375,1498.532Z" transform="translate(-884.223 -1475.14)"/><path class="a" d="M1021.762,1481.924c5.458,0,9.318,3,10.449,8.188h-7.1a3.436,3.436,0,0,0-3.469-2.5c-2.379,0-4.017,1.872-4.017,5.5s1.638,5.5,4.017,5.5a3.383,3.383,0,0,0,3.469-2.5h7.1c-1.13,5.029-4.99,8.187-10.449,8.187-6.395,0-10.917-4.288-10.917-11.189C1010.845,1486.252,1015.367,1481.924,1021.762,1481.924Z" transform="translate(-923.087 -1475.14)"/><path class="a" d="M1082.339,1504.3c-6.394,0-10.995-4.288-10.995-11.189s4.522-11.191,10.995-11.191c6.356,0,10.839,4.21,10.839,10.839a16.88,16.88,0,0,1-.117,1.95h-15.089c.234,2.846,1.988,4.171,4.133,4.171a3.546,3.546,0,0,0,3.47-2.105h7.1C1091.619,1501.029,1087.759,1504.3,1082.339,1504.3Zm-4.328-13.295h8.343c0-2.379-1.871-3.743-4.094-3.743A4.123,4.123,0,0,0,1078.012,1491.009Z" transform="translate(-960 -1475.14)"/><path class="a" d="M1144.173,1504.3c-6.394,0-11.229-4.288-11.229-11.189s4.953-11.191,11.307-11.191c6.394,0,11.307,4.289,11.307,11.191S1150.567,1504.3,1144.173,1504.3Zm0-5.771c2.379,0,4.6-1.754,4.6-5.418,0-3.7-2.183-5.42-4.523-5.42-2.417,0-4.522,1.715-4.522,5.42C1139.729,1496.779,1141.756,1498.532,1144.173,1498.532Z" transform="translate(-997.584 -1475.14)"/></g></g></g></svg>